# xmcd CD database file
#
# Track frame offsets:
#	150
#	5996
#	26355
#	42516
#	52061
#	68717
#	83773
#	96256
#	104729
#	126142
#	156934
#	179711
#
# Disc length: 3165 seconds
#
# Revision: 0
# Processed by: cddbd v1.5.2PL0 Copyright (c) Steve Scherf et al.
# Submitted via: CDex 1.70beta2
#
DISCID=aa0c5b0c
DTITLE=Vangelis - 1492
DYEAR=1992
DGENRE=New Age
TTITLE0=Opening
TTITLE1=Conquest Of Paradise
TTITLE2=Monastery Of La Rabida
TTITLE3=City Of Isabel
TTITLE4=Light And Shadow
TTITLE5=Deliverance
TTITLE6=West Across The Ocean Sea
TTITLE7=Eternity
TTITLE8=Hispanola
TTITLE9=Moxica And The Horse
TTITLE10=Twenty Eighth Parallel
TTITLE11=Pinta, Nina, Santa Maria (Into Eternity)
EXTD=YEAR: 1992
EXTT0=
EXTT1=
EXTT2=
EXTT3=
EXTT4=
EXTT5=
EXTT6=
EXTT7=
EXTT8=
EXTT9=
EXTT10=
EXTT11=
PLAYORDER=
